<svg xmlns="http://www.w3.org/2000/svg" viewBox="0 0 64 64" fill="none">
  <defs>
    <linearGradient id="edgeBg" x1="8" y1="8" x2="56" y2="56" gradientUnits="userSpaceOnUse">
      <stop offset="0%" stop-color="#36C4F0"/>
      <stop offset="45%" stop-color="#2B7CFF"/>
      <stop offset="100%" stop-color="#1649C8"/>
    </linearGradient>
    <linearGradient id="edgeWave" x1="12" y1="40" x2="52" y2="28" gradientUnits="userSpaceOnUse">
      <stop offset="0%" stop-color="#7AF0C8"/>
      <stop offset="100%" stop-color="#36C4F0"/>
    </linearGradient>
  </defs>
  <rect width="64" height="64" rx="14" fill="url(#edgeBg)"/>
  <circle cx="34" cy="30" r="14" fill="#fff" opacity="0.95"/>
  <path
    d="M18 36.5c4.2-7.8 12.4-12.8 21.5-12.2 5.8.4 10.7 3.2 13.8 7.4-2.1-7.8-9.2-13.5-17.8-13.5-10.7 0-19.4 8.4-19.4 18.7 0 1.3.1 2.5.4 3.7.5-1.4 1-2.8 1.5-4.1z"
    fill="url(#edgeWave)"
  />
  <path
    d="M20.5 42.2c3.2 5.5 9.2 9.2 16 9.2 8.4 0 15.5-5.5 17.9-13.1-2.5 2.8-6.2 4.5-10.4 4.5-6.4 0-11.9-3.7-14.5-9-.7 1.5-1.5 3.3-2.2 5.4-.5 1.1-1.1 2.1-1.8 3z"
    fill="#fff"
    opacity="0.9"
  />
</svg>
