<svg xmlns="http://www.w3.org/2000/svg" style="position:absolute;width:0;height:0;overflow:hidden" aria-hidden="true">
  <symbol id="i-chat" viewBox="0 0 24 24" fill="none" stroke="currentColor" stroke-width="1.75" stroke-linecap="round" stroke-linejoin="round"><path d="M21 15a4 4 0 0 1-4 4H8l-5 3V7a4 4 0 0 1 4-4h10a4 4 0 0 1 4 4z"/></symbol>
  <symbol id="i-bot" viewBox="0 0 24 24" fill="none" stroke="currentColor" stroke-width="1.75" stroke-linecap="round" stroke-linejoin="round"><rect x="5" y="8" width="14" height="12" rx="3"/><path d="M12 8V5M9 13h.01M15 13h.01M9 17h6"/></symbol>
  <symbol id="i-folder" viewBox="0 0 24 24" fill="none" stroke="currentColor" stroke-width="1.75" stroke-linecap="round" stroke-linejoin="round"><path d="M3 7a2 2 0 0 1 2-2h5l2 2h7a2 2 0 0 1 2 2v8a2 2 0 0 1-2 2H5a2 2 0 0 1-2-2z"/></symbol>
  <symbol id="i-book" viewBox="0 0 24 24" fill="none" stroke="currentColor" stroke-width="1.75" stroke-linecap="round" stroke-linejoin="round"><path d="M4 19.5A2.5 2.5 0 0 1 6.5 17H20"/><path d="M6.5 2H20v20H6.5A2.5 2.5 0 0 1 4 19.5v-15A2.5 2.5 0 0 1 6.5 2z"/></symbol>
  <symbol id="i-tool" viewBox="0 0 24 24" fill="none" stroke="currentColor" stroke-width="1.75" stroke-linecap="round" stroke-linejoin="round"><path d="M14.7 6.3a4 4 0 0 0-5.4 5.4L3 18v3h3l6.3-6.3a4 4 0 0 0 5.4-5.4l-2.1 2.1-2.9-.5-.5-2.9z"/></symbol>
  <symbol id="i-users" viewBox="0 0 24 24" fill="none" stroke="currentColor" stroke-width="1.75" stroke-linecap="round" stroke-linejoin="round"><path d="M16 21v-2a4 4 0 0 0-4-4H6a4 4 0 0 0-4 4v2"/><circle cx="9" cy="7" r="4"/><path d="M22 21v-2a4 4 0 0 0-3-3.87M16 3.13a4 4 0 0 1 0 7.75"/></symbol>
  <symbol id="i-settings" viewBox="0 0 24 24" fill="none" stroke="currentColor" stroke-width="1.75" stroke-linecap="round" stroke-linejoin="round"><circle cx="12" cy="12" r="3"/><path d="M19.4 15a1.7 1.7 0 0 0 .3 1.8l.1.1a2 2 0 1 1-2.8 2.8l-.1-.1a1.7 1.7 0 0 0-1.8-.3 1.7 1.7 0 0 0-1 1.5V21a2 2 0 1 1-4 0v-.1a1.7 1.7 0 0 0-1-1.5 1.7 1.7 0 0 0-1.8.3l-.1.1a2 2 0 1 1-2.8-2.8l.1-.1a1.7 1.7 0 0 0 .3-1.8 1.7 1.7 0 0 0-1.5-1H3a2 2 0 1 1 0-4h.1a1.7 1.7 0 0 0 1.5-1 1.7 1.7 0 0 0-.3-1.8l-.1-.1a2 2 0 1 1 2.8-2.8l.1.1a1.7 1.7 0 0 0 1.8.3H9a1.7 1.7 0 0 0 1-1.5V3a2 2 0 1 1 4 0v.1a1.7 1.7 0 0 0 1 1.5 1.7 1.7 0 0 0 1.8-.3l.1-.1a2 2 0 1 1 2.8 2.8l-.1.1a1.7 1.7 0 0 0-.3 1.8V9c.3.6.9 1 1.5 1H21a2 2 0 1 1 0 4h-.1a1.7 1.7 0 0 0-1.5 1z"/></symbol>
  <symbol id="i-plus" viewBox="0 0 24 24" fill="none" stroke="currentColor" stroke-width="2" stroke-linecap="round"><path d="M12 5v14M5 12h14"/></symbol>
  <symbol id="i-search" viewBox="0 0 24 24" fill="none" stroke="currentColor" stroke-width="1.75" stroke-linecap="round"><circle cx="11" cy="11" r="7"/><path d="m20 20-3.5-3.5"/></symbol>
  <symbol id="i-send" viewBox="0 0 24 24" fill="none" stroke="currentColor" stroke-width="2" stroke-linecap="round" stroke-linejoin="round"><path d="m5 12 14-7-4 14-3-5-7-2z"/></symbol>
  <symbol id="i-paperclip" viewBox="0 0 24 24" fill="none" stroke="currentColor" stroke-width="1.75" stroke-linecap="round"><path d="m21.4 11.6-8.5 8.5a5 5 0 0 1-7.1-7.1l9.2-9.2a3.2 3.2 0 0 1 4.5 4.5l-9.2 9.2a1.4 1.4 0 1 1-2-2l8.1-8.1"/></symbol>
  <symbol id="i-globe" viewBox="0 0 24 24" fill="none" stroke="currentColor" stroke-width="1.75"><circle cx="12" cy="12" r="9"/><path d="M3 12h18M12 3a14 14 0 0 1 0 18M12 3a14 14 0 0 0 0 18"/></symbol>
  <symbol id="i-brain" viewBox="0 0 24 24" fill="none" stroke="currentColor" stroke-width="1.75" stroke-linecap="round"><path d="M12 5a4 4 0 0 0-4 4v1a3 3 0 0 0-2 2.8V15a3 3 0 0 0 3 3h1M12 5a4 4 0 0 1 4 4v1a3 3 0 0 1 2 2.8V15a3 3 0 0 1-3 3h-1M9 18v3M15 18v3M12 5V3"/></symbol>
  <symbol id="i-star" viewBox="0 0 24 24" fill="none" stroke="currentColor" stroke-width="1.75"><path d="m12 3 2.8 5.7 6.2.9-4.5 4.4 1.1 6.2L12 17.8 6.4 20.2l1.1-6.2L3 9.6l6.2-.9z"/></symbol>
  <symbol id="i-pencil" viewBox="0 0 24 24" fill="none" stroke="currentColor" stroke-width="1.75"><path d="M12 20h9M16.5 3.5a2.1 2.1 0 0 1 3 3L7 19l-4 1 1-4z"/></symbol>
  <symbol id="i-archive" viewBox="0 0 24 24" fill="none" stroke="currentColor" stroke-width="1.75"><rect x="3" y="4" width="18" height="4" rx="1"/><path d="M5 8v11a2 2 0 0 0 2 2h10a2 2 0 0 0 2-2V8M10 12h4"/></symbol>
  <symbol id="i-trash" viewBox="0 0 24 24" fill="none" stroke="currentColor" stroke-width="1.75"><path d="M3 6h18M8 6V4h8v2M19 6l-1 14H6L5 6"/></symbol>
  <symbol id="i-logout" viewBox="0 0 24 24" fill="none" stroke="currentColor" stroke-width="1.75" stroke-linecap="round"><path d="M9 21H5a2 2 0 0 1-2-2V5a2 2 0 0 1 2-2h4M16 17l5-5-5-5M21 12H9"/></symbol>
  <symbol id="i-file" viewBox="0 0 24 24" fill="none" stroke="currentColor" stroke-width="1.75"><path d="M14 2H6a2 2 0 0 0-2 2v16a2 2 0 0 0 2 2h12a2 2 0 0 0 2-2V8z"/><path d="M14 2v6h6"/></symbol>
  <symbol id="i-write" viewBox="0 0 24 24" fill="none" stroke="currentColor" stroke-width="1.75"><path d="M12 20h9M16.5 3.5a2.1 2.1 0 0 1 3 3L7 19l-4 1 1-4z"/></symbol>
  <symbol id="i-bell" viewBox="0 0 24 24" fill="none" stroke="currentColor" stroke-width="1.75"><path d="M6 8a6 6 0 1 1 12 0c0 7 3 9 3 9H3s3-2 3-9M10 21h4"/></symbol>
  <symbol id="i-more" viewBox="0 0 24 24" fill="currentColor"><circle cx="5" cy="12" r="1.6"/><circle cx="12" cy="12" r="1.6"/><circle cx="19" cy="12" r="1.6"/></symbol>
  <symbol id="i-chart" viewBox="0 0 24 24" fill="none" stroke="currentColor" stroke-width="1.75" stroke-linecap="round"><path d="M4 19V5M4 19h16M8 17v-6M12 17V7M16 17v-3"/></symbol>
  <symbol id="i-code" viewBox="0 0 24 24" fill="none" stroke="currentColor" stroke-width="1.75" stroke-linecap="round" stroke-linejoin="round"><path d="m8 9-4 3 4 3M16 9l4 3-4 3M13 5l-2 14"/></symbol>
  <symbol id="i-rocket" viewBox="0 0 24 24" fill="none" stroke="currentColor" stroke-width="1.75" stroke-linecap="round" stroke-linejoin="round"><path d="M5 15c-1.5 1-2 3.5-2 5 1.5 0 4-.5 5-2l8-8a5 5 0 0 0-3-3l-8 8z"/><path d="M13 7l4 4M9 17l-2 2"/></symbol>
  <symbol id="i-radio" viewBox="0 0 24 24" fill="none" stroke="currentColor" stroke-width="1.75"><circle cx="12" cy="12" r="2"/><path d="M16.2 7.8a6 6 0 0 1 0 8.4M7.8 7.8a6 6 0 0 0 0 8.4M19.1 4.9a10 10 0 0 1 0 14.2M4.9 4.9a10 10 0 0 0 0 14.2"/></symbol>
  <symbol id="i-leaf" viewBox="0 0 24 24" fill="none" stroke="currentColor" stroke-width="1.75" stroke-linecap="round"><path d="M11 20A10 10 0 0 1 4 8C8 8 12 4 13 2c4 6 1 12-2 18z"/><path d="M8 14c2-1 4-3 5-5"/></symbol>
  <symbol id="i-check" viewBox="0 0 24 24" fill="none" stroke="currentColor" stroke-width="2" stroke-linecap="round" stroke-linejoin="round"><path d="M20 6 9 17l-5-5"/></symbol>
  <symbol id="i-refresh" viewBox="0 0 24 24" fill="none" stroke="currentColor" stroke-width="1.75" stroke-linecap="round"><path d="M21 12a9 9 0 1 1-2.6-6.3L21 8"/><path d="M21 3v5h-5"/></symbol>
  <symbol id="i-calendar" viewBox="0 0 24 24" fill="none" stroke="currentColor" stroke-width="1.75"><rect x="3" y="5" width="18" height="16" rx="2"/><path d="M16 3v4M8 3v4M3 11h18"/></symbol>
</svg>
